<?xml version="1.0" encoding="UTF-8"?>
<!DOCTYPE svg PUBLIC "-//W3C//DTD SVG 1.1//EN" "http://www.w3.org/Graphics/SVG/1.1/DTD/svg11.dtd">
<!-- Creator: CorelDRAW 2019 (64-Bit Evaluation Version) -->
<svg xmlns="http://www.w3.org/2000/svg" xml:space="preserve" width="21.082mm" height="8.4667mm" version="1.1" style="shape-rendering:geometricPrecision; text-rendering:geometricPrecision; image-rendering:optimizeQuality; fill-rule:evenodd; clip-rule:evenodd"
viewBox="0 0 60.47 24.29"
 xmlns:xlink="http://www.w3.org/1999/xlink"
 xmlns:xodm="http://www.corel.com/coreldraw/odm/2003">
 <defs>
  <style type="text/css">
   <![CDATA[
    .fil0 {fill:none}
    .fil2 {fill:#900C3E}
    .fil1 {fill:#C70039}
    .fil3 {fill:#5B5B5B;fill-rule:nonzero}
   ]]>
  </style>
     <clipPath id="id0">
      <path d="M15.99 5.8l13.41 0 -0.93 12.68 -13.41 0 0.93 -12.68z"/>
     </clipPath>
     <clipPath id="id1">
      <path d="M1.43 5.82l13.41 0 -0.54 12.67 -13.41 0 0.54 -12.67z"/>
     </clipPath>
 </defs>
 <g id="Layer_x0020_1">
  <metadata id="CorelCorpID_0Corel-Layer"/>
  <rect class="fil0" y="0" width="60.47" height="24.29"/>
  <g id="_2230157565504">
   <g>
    <g style="clip-path:url(#id0)">
     <image x="15.06" y="5.8" width="14.34" height="12.68" xlink:href="vidyalogo_Images\vidyalogo_ImgID1.png"/>
    </g>
   </g>
   <polygon class="fil1" points="21.2,7.28 18.1,7.27 18.09,7.27 17.35,7.26 20.04,9.95 22.2,12.11 27.83,12.15 22.2,12.11 17.35,17.03 22.98,17.02 27.83,12.15 25.06,9.37 22.98,7.28 18.1,7.27 18.07,7.27 18.09,7.27 "/>
   <g>
    <g style="clip-path:url(#id1)">
     <image x="0.89" y="5.82" width="13.95" height="12.67" xlink:href="vidyalogo_Images\vidyalogo_ImgID2.png"/>
    </g>
   </g>
   <polygon class="fil1" points="12.9,7.26 7.26,7.28 2.42,12.15 7.26,17.02 7.29,17.02 10.08,17.02 12.88,17.02 10.14,14.24 8.05,12.11 2.42,12.15 8.05,12.11 "/>
   <polygon class="fil2" points="17.31,7.26 10.14,14.24 12.88,17.02 12.91,17.02 20.04,9.95 17.35,7.26 "/>
   <path class="fil3" d="M31.3 12.66c-0.04,0 -0.09,-0 -0.13,-0.01 -0.23,-0.04 -0.35,-0.25 -0.35,-0.62 0,-0.6 0.3,-1.62 0.9,-3.06 0.23,-0.54 0.41,-1.07 0.52,-1.59 0.04,-0.2 0.07,-0.36 0.07,-0.48 0,-0.12 -0,-0.21 -0.01,-0.28 -0.02,-0.21 -0.1,-0.36 -0.24,-0.44 -0.24,-0.13 -0.52,-0.2 -0.82,-0.2 -0.32,0 -0.65,0.08 -1,0.23 -0.35,0.16 -0.68,0.35 -0.99,0.57 -0.31,0.22 -0.59,0.49 -0.84,0.8 -0.25,0.31 -0.44,0.63 -0.57,0.97 -0.12,0.34 -0.19,0.64 -0.19,0.92 0,0.11 0.01,0.22 0.03,0.32 0.08,0.34 0.22,0.59 0.44,0.75 0.21,0.17 0.47,0.25 0.76,0.25 0.41,0 0.79,-0.18 1.15,-0.54 0.36,-0.36 0.54,-0.74 0.54,-1.15 0,-0.22 -0.04,-0.38 -0.13,-0.47 -0.09,-0.1 -0.18,-0.15 -0.27,-0.15 -0.09,0 -0.19,0.01 -0.28,0.04 -0.09,0.03 -0.14,0.02 -0.14,-0.01 0,-0.03 0.06,-0.07 0.17,-0.12 0.11,-0.05 0.23,-0.08 0.35,-0.08 0.12,0 0.23,0.04 0.34,0.11 0.19,0.15 0.28,0.37 0.28,0.66 0,0.3 -0.11,0.59 -0.34,0.89 -0.23,0.3 -0.5,0.54 -0.84,0.72 -0.33,0.18 -0.66,0.27 -0.98,0.27 -0.32,0 -0.62,-0.12 -0.9,-0.35 -0.28,-0.24 -0.46,-0.55 -0.55,-0.95 -0.02,-0.12 -0.04,-0.24 -0.04,-0.37 0,-0.31 0.08,-0.64 0.23,-1 0.15,-0.36 0.37,-0.69 0.65,-1 0.28,-0.31 0.59,-0.57 0.92,-0.77 0.33,-0.21 0.68,-0.38 1.05,-0.51 0.37,-0.14 0.72,-0.21 1.04,-0.21 0.33,0 0.62,0.05 0.89,0.15 0.47,0.2 0.71,0.64 0.71,1.3 0,0.49 -0.17,1.09 -0.53,1.81 -0.22,0.45 -0.41,0.93 -0.58,1.44 -0.25,0.76 -0.38,1.29 -0.38,1.59 0,0.22 0.08,0.34 0.23,0.34 0.3,0 0.83,-0.39 1.58,-1.17 0.53,-0.55 0.95,-1.15 1.25,-1.81 0.19,-0.42 0.29,-0.8 0.29,-1.15 0,-0.19 -0.01,-0.31 -0.04,-0.39 -0.03,-0.08 -0.05,-0.12 -0.06,-0.15 -0.01,-0.02 -0.03,-0.04 -0.06,-0.06 -0.03,-0.02 -0.05,-0.03 -0.06,-0.03 -0.07,-0.02 -0.14,-0.04 -0.21,-0.05 -0.07,-0.01 -0.12,-0.05 -0.13,-0.1 -0.01,-0.05 0.01,-0.08 0.08,-0.09l0.14 0.01c0.22,0.06 0.42,0.22 0.58,0.47 0.09,0.14 0.14,0.31 0.14,0.51 0,0.2 -0.05,0.43 -0.14,0.7 -0.22,0.59 -0.57,1.18 -1.04,1.75 -0.47,0.58 -0.93,1.02 -1.38,1.32 -0.45,0.31 -0.83,0.46 -1.11,0.46zm4.53 -3.54c-0.07,0.06 -0.14,0.09 -0.23,0.09 -0.08,0 -0.15,-0.03 -0.2,-0.09 -0.05,-0.06 -0.07,-0.13 -0.06,-0.21 0.01,-0.08 0.06,-0.15 0.12,-0.21 0.07,-0.06 0.14,-0.09 0.23,-0.09 0.08,0 0.15,0.03 0.2,0.09 0.05,0.06 0.07,0.13 0.05,0.21 -0.01,0.08 -0.06,0.15 -0.12,0.21zm-0.71 2.68c0.09,0 0.19,-0.05 0.29,-0.14 0.18,-0.18 0.41,-0.55 0.69,-1.1 0.03,-0.07 0.07,-0.09 0.1,-0.07 0.01,0.01 0.01,0.03 0.01,0.05 0,0.02 -0.02,0.08 -0.06,0.16 -0.04,0.09 -0.07,0.16 -0.11,0.23 -0.03,0.07 -0.09,0.18 -0.18,0.33 -0.09,0.15 -0.17,0.27 -0.24,0.35 -0.2,0.23 -0.39,0.34 -0.57,0.34 -0.18,0 -0.31,-0.05 -0.38,-0.16 -0.08,-0.11 -0.12,-0.23 -0.12,-0.36 0,-0.13 0.03,-0.27 0.09,-0.43l0.47 -1.19c0.01,-0.03 0.01,-0.07 0.01,-0.12 0,-0.05 -0.03,-0.11 -0.09,-0.19l0.4 -0.01c0.11,0 0.18,0.02 0.2,0.06 0.02,0.04 0,0.11 -0.04,0.19l-0.58 1.36c-0.08,0.18 -0.12,0.33 -0.12,0.46 0,0.14 0.08,0.21 0.23,0.21zm2.52 -0.26c0,0.16 0.06,0.23 0.19,0.23 0.23,0 0.53,-0.38 0.91,-1.15 0.01,-0.03 0.03,-0.06 0.04,-0.09 0.01,-0.03 0.03,-0.05 0.06,-0.06 0.03,-0.01 0.05,-0 0.05,0.02 0.01,0.02 0,0.06 -0.01,0.11 -0.39,0.9 -0.78,1.36 -1.18,1.36 -0.13,0 -0.24,-0.06 -0.31,-0.17 -0.08,-0.12 -0.12,-0.23 -0.12,-0.35 0,-0.11 0.01,-0.22 0.04,-0.32 -0.28,0.47 -0.53,0.73 -0.73,0.8 -0.06,0.02 -0.12,0.04 -0.17,0.04 -0.06,0 -0.11,-0.01 -0.16,-0.02 -0.24,-0.06 -0.36,-0.25 -0.36,-0.57 0,-0.21 0.05,-0.45 0.16,-0.71 0.11,-0.26 0.26,-0.51 0.46,-0.75 0.2,-0.24 0.44,-0.4 0.72,-0.48 0.1,-0.03 0.22,-0.05 0.36,-0.05 0.14,0 0.29,0.04 0.46,0.13 0.33,-0.62 0.61,-1.2 0.85,-1.73 0.07,-0.16 0.14,-0.26 0.2,-0.31 0.07,-0.05 0.13,-0.07 0.18,-0.07 0.06,0 0.09,0 0.1,0 0.01,0 0.06,0.01 0.14,0.02 0.08,0.01 0.14,0.02 0.19,0.01 -0.11,0.1 -0.41,0.6 -0.89,1.49 -0.61,1.14 -0.98,1.9 -1.11,2.28 -0.05,0.14 -0.07,0.26 -0.07,0.35zm0.36 -1.92c-0.06,-0.06 -0.15,-0.09 -0.27,-0.09 -0.11,0 -0.27,0.09 -0.48,0.26 -0.33,0.27 -0.6,0.61 -0.81,1.01 -0.14,0.26 -0.21,0.48 -0.21,0.65 0,0.08 0.02,0.15 0.05,0.21 0.03,0.06 0.08,0.09 0.15,0.09 0.17,0 0.37,-0.17 0.61,-0.51 0.24,-0.34 0.56,-0.88 0.96,-1.61zm-0.23 4.65c-0.21,0 -0.38,-0.05 -0.5,-0.13 -0.12,-0.09 -0.17,-0.2 -0.17,-0.32 0,-0.13 0.04,-0.27 0.11,-0.43 0.13,-0.25 0.36,-0.45 0.69,-0.6 0.25,-0.12 0.58,-0.22 0.99,-0.32 0.41,-0.1 0.67,-0.17 0.79,-0.2 0.17,-0.31 0.38,-0.85 0.63,-1.64 -0.28,0.5 -0.52,0.84 -0.71,1.04 -0.19,0.2 -0.38,0.3 -0.58,0.3 -0.26,0 -0.42,-0.11 -0.46,-0.33 -0.02,-0.03 -0.02,-0.08 -0.01,-0.15 0.01,-0.07 0.02,-0.12 0.02,-0.15 0,-0.03 0.02,-0.08 0.05,-0.14 0.03,-0.07 0.05,-0.11 0.06,-0.14 0.05,-0.11 0.1,-0.2 0.14,-0.26 -0.08,0 -0.1,-0.04 -0.07,-0.12l0.13 -0.26c0.17,-0.32 0.3,-0.58 0.41,-0.8 0.05,-0.1 0.14,-0.15 0.28,-0.15l0.44 0c-0.01,0.01 -0.03,0.03 -0.07,0.06 -0.09,0.06 -0.15,0.13 -0.2,0.2 -0.17,0.3 -0.39,0.73 -0.66,1.29 -0.11,0.23 -0.16,0.4 -0.16,0.5 0,0.11 0.02,0.18 0.05,0.23 0.04,0.04 0.09,0.07 0.15,0.07 0.09,0 0.22,-0.1 0.39,-0.29 0.35,-0.4 0.73,-1.04 1.15,-1.9 0.05,-0.1 0.15,-0.15 0.28,-0.15l0.39 0c-0.13,0.09 -0.23,0.2 -0.3,0.33 -0.07,0.13 -0.15,0.31 -0.24,0.54 -0.09,0.23 -0.19,0.53 -0.32,0.91 -0.13,0.38 -0.23,0.66 -0.3,0.85 0.46,-0.14 0.81,-0.38 1.05,-0.72 0.11,-0.15 0.26,-0.42 0.46,-0.8 0.03,-0.07 0.06,-0.09 0.09,-0.08 0.03,0.01 0.04,0.03 0.04,0.06 0,0.02 -0.04,0.12 -0.12,0.28 -0.08,0.16 -0.16,0.31 -0.24,0.45 -0.08,0.14 -0.19,0.28 -0.32,0.43 -0.13,0.15 -0.28,0.26 -0.44,0.35 -0.16,0.09 -0.37,0.18 -0.64,0.27 -0.37,0.68 -0.75,1.18 -1.13,1.5 -0.35,0.29 -0.74,0.44 -1.15,0.44zm-0.42 -0.72c-0.05,0.11 -0.08,0.21 -0.08,0.3 0,0.09 0.03,0.16 0.1,0.21 0.07,0.05 0.15,0.07 0.26,0.07 0.28,0 0.58,-0.14 0.9,-0.43 0.32,-0.29 0.6,-0.6 0.85,-0.93l0.16 -0.27c-0.8,0.21 -1.31,0.36 -1.52,0.45 -0.31,0.14 -0.53,0.34 -0.67,0.61zm6.57 -3.56c-0.09,0.09 -0.21,0.29 -0.37,0.59 -0.16,0.31 -0.26,0.54 -0.29,0.69 -0.03,0.15 -0.05,0.28 -0.05,0.37 0,0.09 0.04,0.14 0.11,0.14 0.09,0 0.21,-0.09 0.34,-0.26 0.2,-0.25 0.4,-0.57 0.59,-0.97 0.02,-0.04 0.04,-0.07 0.07,-0.07 0.04,-0.01 0.06,0 0.06,0.04 0,0.02 -0.01,0.05 -0.02,0.09 -0.45,0.9 -0.82,1.36 -1.13,1.36 -0.14,0 -0.26,-0.07 -0.34,-0.2 -0.04,-0.07 -0.07,-0.17 -0.07,-0.29 0,-0.12 0.02,-0.27 0.07,-0.45 -0.39,0.63 -0.72,0.94 -1.01,0.94 -0.08,0 -0.15,-0.02 -0.21,-0.07 -0.15,-0.1 -0.22,-0.28 -0.22,-0.53 0,-0.48 0.21,-0.96 0.62,-1.45 0.23,-0.27 0.52,-0.45 0.86,-0.53 0.09,-0.02 0.18,-0.04 0.26,-0.04 0.22,0 0.41,0.08 0.57,0.23 0.05,0.05 0.06,0.1 0.04,0.15 -0.02,0.05 -0.06,0.07 -0.12,0.06 -0.05,-0.18 -0.17,-0.26 -0.35,-0.26 -0.21,0 -0.47,0.17 -0.77,0.5 -0.18,0.19 -0.34,0.42 -0.49,0.69 -0.19,0.32 -0.28,0.57 -0.28,0.76 0,0.19 0.06,0.28 0.18,0.28 0.29,0 0.67,-0.45 1.15,-1.34 0.09,-0.18 0.17,-0.3 0.23,-0.37 0.06,-0.07 0.14,-0.1 0.24,-0.1 0.02,0 0.07,0.01 0.15,0.02 0.08,0.01 0.14,0.02 0.18,0.01zm8.84 -3.17c0.52,0.31 0.77,0.68 0.77,1.11 0,0.34 -0.19,0.71 -0.57,1.09 -0.22,0.23 -0.48,0.43 -0.78,0.59 -0.3,0.17 -0.59,0.28 -0.89,0.36 -0.51,0.12 -0.96,0.18 -1.37,0.18 -0.09,0 -0.17,-0 -0.26,-0.01 -0.36,0.52 -0.72,0.96 -1.09,1.33 -0.55,0.52 -1.15,0.77 -1.82,0.77 -0.63,0 -1.02,-0.17 -1.17,-0.52 -0.03,-0.08 -0.05,-0.18 -0.05,-0.29 0,-0.11 0.06,-0.23 0.17,-0.35 0.17,-0.2 0.42,-0.3 0.74,-0.3 0.2,0 0.42,0.04 0.64,0.11 0.08,0.03 0.11,0.06 0.09,0.09 -0.02,0.02 -0.08,0.01 -0.19,-0.03 -0.11,-0.04 -0.24,-0.06 -0.4,-0.06 -0.16,0 -0.3,0.06 -0.42,0.18 -0.12,0.12 -0.18,0.25 -0.18,0.38 0,0.05 0.01,0.11 0.03,0.16 0.08,0.26 0.3,0.39 0.66,0.39 0.54,0 1.08,-0.25 1.6,-0.76 0.37,-0.36 0.8,-1.02 1.26,-1.97 0.18,-0.36 0.4,-0.75 0.67,-1.19 0.27,-0.44 0.54,-0.81 0.82,-1.12 0.03,-0.03 0.08,-0.08 0.13,-0.13 0.1,-0.12 0.19,-0.21 0.26,-0.28 -0.35,-0.05 -0.72,-0.07 -1.12,-0.07 -0.4,0 -0.78,0.03 -1.13,0.1 -0.36,0.07 -0.66,0.14 -0.93,0.23 -0.26,0.09 -0.53,0.21 -0.8,0.35 -0.27,0.14 -0.5,0.32 -0.68,0.54 -0.24,0.28 -0.36,0.57 -0.36,0.87 0,0.18 0.07,0.36 0.2,0.52 0.14,0.17 0.32,0.26 0.54,0.26 0.22,0 0.44,-0.08 0.64,-0.26 0.21,-0.17 0.35,-0.38 0.44,-0.63 0,-0.03 0.02,-0.06 0.03,-0.07 0.02,-0.01 0.03,-0.01 0.05,0 0.01,0.01 0.02,0.04 0.02,0.07 -0,0.32 -0.13,0.57 -0.37,0.75 -0.24,0.18 -0.51,0.27 -0.8,0.27 -0.33,0 -0.6,-0.1 -0.81,-0.29 -0.21,-0.19 -0.31,-0.44 -0.31,-0.75 0,-0.28 0.08,-0.54 0.23,-0.76 0.15,-0.23 0.33,-0.41 0.54,-0.55 0.21,-0.14 0.45,-0.27 0.72,-0.38 0.46,-0.19 0.95,-0.31 1.46,-0.39 0.51,-0.08 0.98,-0.11 1.42,-0.11 0.44,0 0.85,0.04 1.22,0.12 0.18,-0.14 0.33,-0.23 0.46,-0.28 0.13,-0.05 0.21,-0.07 0.22,-0.07 0.02,0 0.03,0 0.03,0.01 0.03,0 0.04,0.02 0.02,0.05 -0.02,0.03 -0.07,0.08 -0.17,0.14 -0.09,0.06 -0.19,0.14 -0.27,0.23 0.31,0.08 0.59,0.2 0.85,0.35zm-2.89 3.17c0.35,0 0.74,-0.06 1.16,-0.19 0.42,-0.12 0.78,-0.31 1.1,-0.54 0.62,-0.47 0.93,-0.96 0.93,-1.46 0,-0.57 -0.43,-0.96 -1.29,-1.16 -0.27,0.38 -0.62,0.96 -1.06,1.73 -0.43,0.77 -0.75,1.31 -0.95,1.62 0.03,0 0.07,0 0.1,0zm4.59 -0.01c-0.09,0.09 -0.21,0.29 -0.37,0.59 -0.16,0.31 -0.26,0.54 -0.29,0.69 -0.03,0.15 -0.05,0.28 -0.05,0.37 0,0.09 0.04,0.14 0.11,0.14 0.09,0 0.21,-0.09 0.34,-0.26 0.2,-0.25 0.4,-0.57 0.59,-0.97 0.02,-0.04 0.04,-0.07 0.07,-0.07 0.04,-0.01 0.06,0 0.06,0.04 0,0.02 -0.01,0.05 -0.02,0.09 -0.45,0.9 -0.82,1.36 -1.13,1.36 -0.14,0 -0.26,-0.07 -0.34,-0.2 -0.04,-0.07 -0.07,-0.17 -0.07,-0.29 0,-0.12 0.02,-0.27 0.07,-0.45 -0.39,0.63 -0.72,0.94 -1.01,0.94 -0.08,0 -0.15,-0.02 -0.21,-0.07 -0.15,-0.1 -0.22,-0.28 -0.22,-0.53 0,-0.48 0.21,-0.96 0.62,-1.45 0.23,-0.27 0.52,-0.45 0.86,-0.53 0.09,-0.02 0.18,-0.04 0.26,-0.04 0.22,0 0.41,0.08 0.57,0.23 0.05,0.05 0.06,0.1 0.04,0.15 -0.02,0.05 -0.06,0.07 -0.12,0.06 -0.05,-0.18 -0.17,-0.26 -0.35,-0.26 -0.21,0 -0.47,0.17 -0.77,0.5 -0.18,0.19 -0.34,0.42 -0.49,0.69 -0.19,0.32 -0.28,0.57 -0.28,0.76 0,0.19 0.06,0.28 0.18,0.28 0.29,0 0.67,-0.45 1.15,-1.34 0.09,-0.18 0.17,-0.3 0.23,-0.37 0.06,-0.07 0.14,-0.1 0.24,-0.1 0.02,0 0.07,0.01 0.15,0.02 0.08,0.01 0.14,0.02 0.18,0.01zm0.15 1.39c0,-0.4 0.19,-1.08 0.58,-2.03l-0.38 0c-0.02,0 -0.04,-0.01 -0.05,-0.04 -0.01,-0.03 -0,-0.05 0.01,-0.08 0.01,-0.03 0.03,-0.04 0.05,-0.04l0.44 0c0.17,-0.38 0.34,-0.71 0.49,-0.96 0.15,-0.26 0.29,-0.43 0.42,-0.52 0.13,-0.09 0.22,-0.13 0.27,-0.13 0.06,0 0.1,0 0.12,0.01 0.11,0.05 0.17,0.16 0.17,0.33 0,0.17 -0.06,0.37 -0.17,0.61 -0.11,0.24 -0.22,0.46 -0.33,0.66l0.35 0c0.02,0 0.04,0.01 0.05,0.04 0.01,0.03 0,0.05 -0.01,0.08 -0.01,0.03 -0.03,0.04 -0.05,0.04l-0.42 0c-0.27,0.45 -0.59,0.85 -0.97,1.2l-0.17 0.74c-0.01,0.06 -0.02,0.13 -0.02,0.19 0,0.06 0.02,0.12 0.05,0.19 0.03,0.06 0.09,0.09 0.16,0.09 0.08,0 0.17,-0.03 0.28,-0.09 0.23,-0.17 0.49,-0.54 0.77,-1.1 0.02,-0.04 0.04,-0.07 0.07,-0.08 0.03,-0.01 0.04,-0 0.05,0.02 0,0.02 -0,0.06 -0.02,0.11 -0.16,0.34 -0.29,0.57 -0.38,0.71 -0.26,0.42 -0.54,0.63 -0.84,0.63 -0.15,0 -0.27,-0.06 -0.37,-0.17 -0.1,-0.11 -0.15,-0.25 -0.15,-0.42zm1.47 -2.19c0.32,-0.57 0.48,-0.97 0.48,-1.2 0,-0.1 -0.02,-0.15 -0.05,-0.15 -0.05,0 -0.14,0.08 -0.24,0.23 -0.11,0.16 -0.29,0.53 -0.55,1.11l0.36 0zm-0.09 0.16l-0.34 0c-0.06,0.14 -0.19,0.46 -0.39,0.97 0.26,-0.27 0.51,-0.6 0.74,-0.97zm1.27 -0.23c-0.07,0.06 -0.14,0.09 -0.23,0.09 -0.08,0 -0.15,-0.03 -0.2,-0.09 -0.05,-0.06 -0.07,-0.13 -0.06,-0.21 0.01,-0.08 0.06,-0.15 0.12,-0.21 0.07,-0.06 0.14,-0.09 0.23,-0.09 0.08,0 0.15,0.03 0.2,0.09 0.05,0.06 0.07,0.13 0.05,0.21 -0.01,0.08 -0.06,0.15 -0.12,0.21zm-0.72 2.68c0.09,0 0.19,-0.05 0.29,-0.14 0.18,-0.18 0.41,-0.55 0.69,-1.1 0.03,-0.07 0.07,-0.09 0.1,-0.07 0.01,0.01 0.01,0.03 0.01,0.05 0,0.02 -0.02,0.08 -0.06,0.16 -0.04,0.09 -0.07,0.16 -0.11,0.23 -0.03,0.07 -0.09,0.18 -0.18,0.33 -0.09,0.15 -0.17,0.27 -0.24,0.35 -0.2,0.23 -0.39,0.34 -0.57,0.34 -0.18,0 -0.31,-0.05 -0.38,-0.16 -0.08,-0.11 -0.12,-0.23 -0.12,-0.36 0,-0.13 0.03,-0.27 0.09,-0.43l0.47 -1.19c0.01,-0.03 0.01,-0.07 0.01,-0.12 0,-0.05 -0.03,-0.11 -0.09,-0.19l0.4 -0.01c0.11,0 0.18,0.02 0.2,0.06 0.02,0.04 0,0.11 -0.04,0.19l-0.58 1.36c-0.08,0.18 -0.12,0.33 -0.12,0.46 0,0.14 0.08,0.21 0.23,0.21zm1.39 -1.25c-0,0.02 -0.03,0.09 -0.07,0.2 -0.04,0.11 -0.07,0.22 -0.1,0.33 -0.03,0.1 -0.04,0.21 -0.04,0.31 0,0.1 0.02,0.2 0.07,0.29 0.05,0.09 0.13,0.13 0.23,0.13 0.18,0 0.35,-0.12 0.51,-0.35 0.17,-0.24 0.34,-0.54 0.53,-0.9 0.04,-0.07 0.08,-0.09 0.11,-0.08 0.02,0.02 0.03,0.05 0.01,0.08 -0.01,0.03 -0.05,0.1 -0.09,0.2 -0.05,0.1 -0.08,0.18 -0.1,0.22 -0.02,0.04 -0.06,0.11 -0.12,0.22 -0.06,0.1 -0.1,0.18 -0.15,0.23 -0.04,0.05 -0.1,0.12 -0.17,0.2 -0.07,0.08 -0.14,0.14 -0.2,0.18 -0.17,0.11 -0.33,0.16 -0.48,0.16 -0.15,0 -0.27,-0.03 -0.35,-0.1 -0.08,-0.07 -0.13,-0.14 -0.15,-0.21 -0.02,-0.08 -0.03,-0.14 -0.03,-0.2 0,-0.06 0,-0.13 0.01,-0.23 0.01,-0.16 0.05,-0.31 0.09,-0.45 0.05,-0.15 0.07,-0.23 0.08,-0.25 0.11,-0.4 0.27,-0.84 0.48,-1.32 0.21,-0.48 0.38,-0.84 0.53,-1.08 0.14,-0.24 0.26,-0.4 0.34,-0.49 0.17,-0.18 0.33,-0.26 0.49,-0.26 0.11,0 0.19,0.08 0.23,0.24 0,0.03 0.01,0.07 0.01,0.11 0,0.17 -0.06,0.37 -0.18,0.63 -0.42,0.93 -0.92,1.66 -1.5,2.19zm0.06 -0.23c0.25,-0.25 0.49,-0.57 0.74,-0.96 0.24,-0.38 0.42,-0.71 0.54,-0.98 0.11,-0.27 0.17,-0.45 0.17,-0.55 0,-0.1 -0.02,-0.15 -0.05,-0.15 -0.05,0 -0.14,0.1 -0.28,0.29 -0.14,0.19 -0.32,0.54 -0.55,1.04 -0.23,0.5 -0.42,0.93 -0.57,1.31z"/>
   <path class="fil3" d="M33.48 17.55l0.27 -1.33 0.3 0 -0.41 1.76 -0.29 0 -0.34 -1.29 -0.34 1.29 -0.29 0 -0.41 -1.76 0.3 0 0.27 1.32 0.34 -1.32 0.26 0 0.33 1.33zm1.89 0.46c-0.19,0 -0.34,-0.06 -0.45,-0.18 -0.12,-0.12 -0.17,-0.27 -0.17,-0.47l0 -0.04c0,-0.13 0.03,-0.25 0.08,-0.35 0.05,-0.1 0.12,-0.18 0.21,-0.24 0.09,-0.06 0.19,-0.09 0.3,-0.09 0.18,0 0.32,0.06 0.41,0.17 0.1,0.11 0.15,0.27 0.15,0.48l0 0.12 -0.86 0c0.01,0.11 0.05,0.19 0.11,0.26 0.06,0.06 0.14,0.09 0.24,0.09 0.13,0 0.24,-0.05 0.33,-0.16l0.16 0.15c-0.05,0.08 -0.12,0.14 -0.21,0.18 -0.09,0.04 -0.19,0.06 -0.29,0.06zm-0.03 -1.12c-0.08,0 -0.15,0.03 -0.2,0.08 -0.05,0.06 -0.08,0.14 -0.09,0.24l0.56 0 0 -0.02c-0.01,-0.1 -0.03,-0.17 -0.08,-0.22 -0.05,-0.05 -0.11,-0.08 -0.19,-0.08zm2.51 0.46c0,0.2 -0.05,0.37 -0.14,0.49 -0.09,0.12 -0.22,0.18 -0.37,0.18 -0.15,0 -0.27,-0.06 -0.36,-0.17l-0.01 0.14 -0.27 0 0 -1.86 0.29 0 0 0.67c0.08,-0.1 0.2,-0.15 0.34,-0.15 0.16,0 0.29,0.06 0.38,0.18 0.09,0.12 0.14,0.28 0.14,0.5l0 0.02zm-0.29 -0.03c0,-0.14 -0.03,-0.25 -0.08,-0.32 -0.05,-0.07 -0.12,-0.11 -0.22,-0.11 -0.13,0 -0.22,0.06 -0.27,0.17l0 0.54c0.05,0.11 0.14,0.17 0.27,0.17 0.09,0 0.16,-0.03 0.21,-0.1 0.05,-0.07 0.08,-0.17 0.08,-0.31l0 -0.04zm1.76 0.67l0 -1.76 0.52 0c0.16,0 0.29,0.03 0.41,0.1 0.12,0.07 0.21,0.17 0.28,0.3 0.07,0.13 0.1,0.27 0.1,0.44l0 0.09c0,0.17 -0.03,0.31 -0.1,0.44 -0.07,0.13 -0.16,0.22 -0.28,0.29 -0.12,0.07 -0.26,0.1 -0.42,0.1l-0.51 0zm0.31 -1.51l0 1.27 0.2 0c0.16,0 0.28,-0.05 0.37,-0.15 0.09,-0.1 0.13,-0.24 0.13,-0.43l0 -0.1c0,-0.19 -0.04,-0.34 -0.12,-0.44 -0.08,-0.1 -0.2,-0.15 -0.36,-0.15l-0.21 0zm2.44 1.54c-0.19,0 -0.34,-0.06 -0.45,-0.18 -0.12,-0.12 -0.17,-0.27 -0.17,-0.47l0 -0.04c0,-0.13 0.03,-0.25 0.08,-0.35 0.05,-0.1 0.12,-0.18 0.21,-0.24 0.09,-0.06 0.19,-0.09 0.3,-0.09 0.18,0 0.32,0.06 0.41,0.17 0.1,0.11 0.15,0.27 0.15,0.48l0 0.12 -0.86 0c0.01,0.11 0.04,0.19 0.11,0.26 0.06,0.06 0.14,0.09 0.24,0.09 0.13,0 0.24,-0.05 0.33,-0.16l0.16 0.15c-0.05,0.08 -0.12,0.14 -0.21,0.18 -0.09,0.04 -0.19,0.06 -0.29,0.06zm-0.03 -1.12c-0.08,0 -0.15,0.03 -0.2,0.08 -0.05,0.06 -0.08,0.14 -0.09,0.24l0.56 0 0 -0.02c-0.01,-0.1 -0.03,-0.17 -0.08,-0.22 -0.05,-0.05 -0.11,-0.08 -0.19,-0.08zm1.81 0.72l0.28 -0.94 0.3 0 -0.45 1.31 -0.26 0 -0.46 -1.31 0.3 0 0.28 0.94zm1.9 0.4c-0.19,0 -0.34,-0.06 -0.45,-0.18 -0.12,-0.12 -0.17,-0.27 -0.17,-0.47l0 -0.04c0,-0.13 0.03,-0.25 0.08,-0.35 0.05,-0.1 0.12,-0.18 0.21,-0.24 0.09,-0.06 0.19,-0.09 0.3,-0.09 0.18,0 0.32,0.06 0.41,0.17 0.1,0.11 0.15,0.27 0.15,0.48l0 0.12 -0.86 0c0.01,0.11 0.05,0.19 0.11,0.26 0.06,0.06 0.14,0.09 0.24,0.09 0.13,0 0.24,-0.05 0.33,-0.16l0.16 0.15c-0.05,0.08 -0.12,0.14 -0.21,0.18 -0.09,0.04 -0.19,0.06 -0.29,0.06zm-0.03 -1.12c-0.08,0 -0.15,0.03 -0.2,0.08 -0.05,0.06 -0.08,0.14 -0.09,0.24l0.56 0 0 -0.02c-0.01,-0.1 -0.03,-0.17 -0.08,-0.22 -0.05,-0.05 -0.11,-0.08 -0.19,-0.08zm1.68 1.1l-0.29 0 0 -1.86 0.29 0 0 1.86zm0.84 -0.67c0,-0.13 0.03,-0.24 0.08,-0.35 0.05,-0.1 0.12,-0.18 0.21,-0.24 0.09,-0.06 0.2,-0.08 0.32,-0.08 0.18,0 0.32,0.06 0.43,0.17 0.11,0.11 0.17,0.26 0.18,0.45l0 0.07c0,0.13 -0.02,0.24 -0.07,0.35 -0.05,0.1 -0.12,0.18 -0.21,0.24 -0.09,0.06 -0.2,0.08 -0.32,0.08 -0.18,0 -0.33,-0.06 -0.44,-0.18 -0.11,-0.12 -0.17,-0.29 -0.17,-0.49l0 -0.01zm0.29 0.02c0,0.13 0.03,0.24 0.08,0.32 0.06,0.08 0.13,0.11 0.23,0.11 0.1,0 0.18,-0.04 0.23,-0.12 0.06,-0.08 0.08,-0.19 0.08,-0.34 0,-0.13 -0.03,-0.24 -0.09,-0.31 -0.06,-0.08 -0.13,-0.12 -0.23,-0.12 -0.1,0 -0.17,0.04 -0.23,0.11 -0.06,0.08 -0.08,0.19 -0.08,0.34zm2.89 0c0,0.2 -0.05,0.36 -0.14,0.49 -0.09,0.12 -0.22,0.18 -0.37,0.18 -0.14,0 -0.26,-0.05 -0.34,-0.14l0 0.62 -0.29 0 0 -1.81 0.27 0 0.01 0.13c0.09,-0.1 0.2,-0.16 0.35,-0.16 0.16,0 0.28,0.06 0.38,0.18 0.09,0.12 0.14,0.28 0.14,0.5l0 0.02zm-0.29 -0.03c0,-0.13 -0.03,-0.23 -0.08,-0.31 -0.05,-0.08 -0.13,-0.11 -0.22,-0.11 -0.12,0 -0.21,0.05 -0.26,0.15l0 0.58c0.05,0.1 0.14,0.15 0.26,0.15 0.09,0 0.17,-0.04 0.22,-0.11 0.05,-0.08 0.08,-0.19 0.08,-0.34zm1.69 0.69c-0.19,0 -0.34,-0.06 -0.45,-0.18 -0.12,-0.12 -0.17,-0.27 -0.17,-0.47l0 -0.04c0,-0.13 0.03,-0.25 0.08,-0.35 0.05,-0.1 0.12,-0.18 0.21,-0.24 0.09,-0.06 0.19,-0.09 0.3,-0.09 0.18,0 0.32,0.06 0.41,0.17 0.1,0.11 0.15,0.27 0.15,0.48l0 0.12 -0.86 0c0.01,0.11 0.05,0.19 0.11,0.26 0.06,0.06 0.14,0.09 0.24,0.09 0.13,0 0.24,-0.05 0.33,-0.16l0.16 0.15c-0.05,0.08 -0.12,0.14 -0.21,0.18 -0.09,0.04 -0.19,0.06 -0.29,0.06zm-0.03 -1.12c-0.08,0 -0.15,0.03 -0.2,0.08 -0.05,0.06 -0.08,0.14 -0.09,0.24l0.56 0 0 -0.02c-0.01,-0.1 -0.03,-0.17 -0.08,-0.22 -0.05,-0.05 -0.11,-0.08 -0.19,-0.08zm2.05 0.06c-0.04,-0.01 -0.08,-0.01 -0.12,-0.01 -0.13,0 -0.23,0.05 -0.27,0.15l0 0.9 -0.29 0 0 -1.31 0.28 0 0.01 0.15c0.07,-0.11 0.17,-0.17 0.3,-0.17 0.04,0 0.08,0.01 0.1,0.02l-0 0.28z"/>
  </g>
 </g>
</svg>
