<?xml version="1.0" encoding="UTF-8"?>
<!DOCTYPE svg PUBLIC "-//W3C//DTD SVG 1.1//EN" "http://www.w3.org/Graphics/SVG/1.1/DTD/svg11.dtd">
<!-- Creator: CorelDRAW 2019 (64-Bit Evaluation Version) -->
<svg xmlns="http://www.w3.org/2000/svg" xml:space="preserve" width="19.931mm" height="5.185mm" version="1.1" style="shape-rendering:geometricPrecision; text-rendering:geometricPrecision; image-rendering:optimizeQuality; fill-rule:evenodd; clip-rule:evenodd"
viewBox="0 0 307.71 80.05"
 xmlns:xlink="http://www.w3.org/1999/xlink"
 xmlns:xodm="http://www.corel.com/coreldraw/odm/2003">
 <defs>
  <style type="text/css">
   <![CDATA[
    .fil0 {fill:none}
    .fil1 {fill:#00FFBB}
    .fil2 {fill:#4BC281}
    .fil3 {fill:#FEFEFE;fill-rule:nonzero}
   ]]>
  </style>
 </defs>
 <g id="Layer_x0020_1">
  <metadata id="CorelCorpID_0Corel-Layer"/>
  <rect class="fil0" x="-0.04" y="-0.01" width="307.71" height="80.05"/>
  <g id="_1823436127808">
   <polygon class="fil1" points="102.05,14.31 85.68,14.26 85.63,14.26 81.72,14.2 95.93,28.41 107.33,39.81 137.06,40.02 107.33,39.81 81.72,65.8 111.45,65.74 137.06,40.02 122.43,25.35 111.45,14.31 85.68,14.26 85.52,14.26 85.63,14.26 "/>
   <polygon class="fil1" points="58.22,14.2 28.44,14.31 2.88,40.02 28.44,65.74 28.6,65.74 43.33,65.74 58.12,65.74 43.65,51.06 32.61,39.81 2.88,40.02 32.61,39.81 "/>
   <polygon class="fil2" points="81.51,14.2 43.65,51.06 58.12,65.74 58.28,65.74 95.93,28.41 81.72,14.2 "/>
   <path class="fil3" d="M155.38 42.72c-0.21,0 -0.48,0 -0.69,-0.05 -1.22,-0.21 -1.85,-1.32 -1.85,-3.27 0,-3.17 1.59,-8.55 4.75,-16.16 1.22,-2.85 2.17,-5.65 2.75,-8.4 0.21,-1.06 0.37,-1.9 0.37,-2.54 0,-0.63 0,-1.11 -0.05,-1.48 -0.1,-1.11 -0.53,-1.9 -1.27,-2.33 -1.27,-0.69 -2.75,-1.06 -4.33,-1.06 -1.69,0 -3.43,0.42 -5.28,1.22 -1.85,0.85 -3.59,1.85 -5.23,3.01 -1.64,1.16 -3.12,2.59 -4.44,4.23 -1.32,1.64 -2.33,3.33 -3.01,5.12 -0.63,1.79 -1,3.38 -1,4.86 0,0.58 0.05,1.16 0.16,1.69 0.42,1.79 1.16,3.12 2.32,3.96 1.11,0.9 2.48,1.32 4.01,1.32 2.16,0 4.17,-0.95 6.07,-2.85 1.9,-1.9 2.85,-3.91 2.85,-6.07 0,-1.16 -0.21,-2.01 -0.69,-2.48 -0.48,-0.53 -0.95,-0.79 -1.42,-0.79 -0.48,0 -1,0.05 -1.48,0.21 -0.48,0.16 -0.74,0.1 -0.74,-0.05 0,-0.16 0.32,-0.37 0.9,-0.63 0.58,-0.26 1.22,-0.42 1.85,-0.42 0.63,0 1.22,0.21 1.8,0.58 1,0.79 1.48,1.95 1.48,3.49 0,1.58 -0.58,3.12 -1.8,4.7 -1.22,1.58 -2.64,2.85 -4.44,3.8 -1.74,0.95 -3.49,1.42 -5.18,1.42 -1.69,0 -3.27,-0.63 -4.75,-1.85 -1.48,-1.27 -2.43,-2.9 -2.9,-5.02 -0.1,-0.63 -0.21,-1.27 -0.21,-1.95 0,-1.64 0.42,-3.38 1.22,-5.28 0.79,-1.9 1.95,-3.64 3.43,-5.28 1.48,-1.64 3.12,-3.01 4.86,-4.07 1.74,-1.11 3.59,-2.01 5.55,-2.69 1.95,-0.74 3.8,-1.11 5.49,-1.11 1.74,0 3.27,0.26 4.7,0.79 2.48,1.06 3.75,3.38 3.75,6.87 0,2.59 -0.9,5.75 -2.8,9.56 -1.16,2.38 -2.16,4.91 -3.06,7.6 -1.32,4.01 -2.01,6.81 -2.01,8.4 0,1.16 0.42,1.8 1.22,1.8 1.58,0 4.38,-2.06 8.34,-6.18 2.8,-2.9 5.02,-6.07 6.6,-9.56 1,-2.22 1.53,-4.23 1.53,-6.07 0,-1 -0.05,-1.64 -0.21,-2.06 -0.16,-0.42 -0.26,-0.63 -0.32,-0.79 -0.05,-0.1 -0.16,-0.21 -0.32,-0.32 -0.16,-0.11 -0.26,-0.16 -0.32,-0.16 -0.37,-0.11 -0.74,-0.21 -1.11,-0.26 -0.37,-0.05 -0.63,-0.26 -0.69,-0.53 -0.05,-0.26 0.05,-0.42 0.42,-0.48l0.74 0.05c1.16,0.32 2.22,1.16 3.06,2.48 0.48,0.74 0.74,1.64 0.74,2.69 0,1.06 -0.26,2.27 -0.74,3.7 -1.16,3.12 -3.01,6.23 -5.49,9.24 -2.48,3.06 -4.91,5.39 -7.29,6.97 -2.38,1.64 -4.38,2.43 -5.86,2.43l-0.01 0.06zm23.92 -18.69c-0.37,0.32 -0.74,0.48 -1.22,0.48 -0.42,0 -0.79,-0.16 -1.06,-0.48 -0.26,-0.32 -0.37,-0.69 -0.32,-1.11 0.05,-0.42 0.32,-0.79 0.63,-1.11 0.37,-0.32 0.74,-0.48 1.22,-0.48 0.42,0 0.79,0.16 1.06,0.48 0.26,0.32 0.37,0.69 0.26,1.11 -0.05,0.42 -0.32,0.79 -0.63,1.11l0.05 0zm-3.75 14.15c0.48,0 1,-0.26 1.53,-0.74 0.95,-0.95 2.17,-2.9 3.64,-5.81 0.16,-0.37 0.37,-0.48 0.53,-0.37 0.05,0.05 0.05,0.16 0.05,0.26 0,0.1 -0.11,0.42 -0.32,0.84 -0.21,0.48 -0.37,0.85 -0.58,1.22 -0.16,0.37 -0.48,0.95 -0.95,1.74 -0.48,0.79 -0.9,1.42 -1.27,1.85 -1.06,1.22 -2.06,1.8 -3.01,1.8 -0.95,0 -1.64,-0.26 -2.01,-0.85 -0.42,-0.58 -0.63,-1.22 -0.63,-1.9 0,-0.69 0.16,-1.43 0.48,-2.27l2.48 -6.29c0.05,-0.16 0.05,-0.37 0.05,-0.63 0,-0.26 -0.16,-0.58 -0.48,-1l2.11 -0.05c0.58,0 0.95,0.11 1.06,0.32 0.11,0.21 0,0.58 -0.21,1l-3.06 7.18c-0.42,0.95 -0.63,1.74 -0.63,2.43 0,0.74 0.42,1.11 1.22,1.11l-0 0.16zm13.31 -1.37c0,0.85 0.32,1.22 1,1.22 1.22,0 2.8,-2.01 4.81,-6.07 0.05,-0.16 0.16,-0.32 0.21,-0.48 0.05,-0.16 0.16,-0.26 0.32,-0.32 0.16,-0.05 0.26,0 0.26,0.11 0.05,0.11 0,0.32 -0.05,0.58 -2.06,4.75 -4.12,7.18 -6.23,7.18 -0.69,0 -1.27,-0.32 -1.64,-0.9 -0.42,-0.63 -0.63,-1.22 -0.63,-1.85 0,-0.58 0.05,-1.16 0.21,-1.69 -1.48,2.48 -2.8,3.86 -3.86,4.22 -0.32,0.11 -0.63,0.21 -0.9,0.21 -0.32,0 -0.58,-0.05 -0.84,-0.11 -1.27,-0.32 -1.9,-1.32 -1.9,-3.01 0,-1.11 0.26,-2.38 0.85,-3.75 0.58,-1.37 1.37,-2.69 2.43,-3.96 1.06,-1.27 2.32,-2.11 3.8,-2.54 0.53,-0.16 1.16,-0.26 1.9,-0.26 0.74,0 1.53,0.21 2.43,0.69 1.74,-3.27 3.22,-6.34 4.49,-9.13 0.37,-0.85 0.74,-1.37 1.06,-1.64 0.37,-0.26 0.69,-0.37 0.95,-0.37 0.32,0 0.48,0 0.53,0 0.05,0 0.32,0.05 0.74,0.1 0.42,0.05 0.74,0.11 1,0.05 -0.58,0.53 -2.17,3.17 -4.7,7.87 -3.22,6.02 -5.18,10.03 -5.86,12.04 -0.26,0.74 -0.37,1.37 -0.37,1.85l0 -0.05zm1.9 -10.14c-0.32,-0.32 -0.79,-0.48 -1.42,-0.48 -0.58,0 -1.43,0.48 -2.54,1.37 -1.74,1.42 -3.17,3.22 -4.28,5.33 -0.74,1.37 -1.11,2.53 -1.11,3.43 0,0.42 0.1,0.79 0.26,1.11 0.16,0.32 0.42,0.48 0.79,0.48 0.9,0 1.95,-0.9 3.22,-2.69 1.27,-1.8 2.96,-4.65 5.07,-8.5l0 -0.05zm-1.21 24.55c-1.11,0 -2.01,-0.26 -2.64,-0.69 -0.63,-0.48 -0.9,-1.06 -0.9,-1.69 0,-0.69 0.21,-1.42 0.58,-2.27 0.69,-1.32 1.9,-2.38 3.64,-3.17 1.32,-0.63 3.06,-1.16 5.23,-1.69 2.16,-0.53 3.54,-0.9 4.17,-1.06 0.9,-1.64 2.01,-4.49 3.33,-8.66 -1.48,2.64 -2.75,4.44 -3.75,5.49 -1,1.06 -2.01,1.58 -3.06,1.58 -1.37,0 -2.22,-0.58 -2.43,-1.74 -0.11,-0.16 -0.11,-0.42 -0.05,-0.79 0.05,-0.37 0.11,-0.63 0.11,-0.79 0,-0.16 0.11,-0.42 0.26,-0.74 0.16,-0.37 0.26,-0.58 0.32,-0.74 0.26,-0.58 0.53,-1.06 0.74,-1.37 -0.42,0 -0.53,-0.21 -0.37,-0.63l0.69 -1.37c0.9,-1.69 1.58,-3.06 2.16,-4.22 0.26,-0.53 0.74,-0.79 1.48,-0.79l2.32 0c-0.05,0.05 -0.16,0.16 -0.37,0.32 -0.48,0.32 -0.79,0.69 -1.06,1.06 -0.9,1.58 -2.06,3.86 -3.49,6.81 -0.58,1.22 -0.85,2.11 -0.85,2.64 0,0.58 0.11,0.95 0.26,1.22 0.21,0.21 0.48,0.37 0.79,0.37 0.48,0 1.16,-0.53 2.06,-1.53 1.85,-2.11 3.86,-5.49 6.07,-10.03 0.26,-0.53 0.79,-0.79 1.48,-0.79l2.06 0c-0.69,0.48 -1.22,1.06 -1.59,1.74 -0.37,0.69 -0.79,1.64 -1.27,2.85 -0.48,1.22 -1,2.8 -1.69,4.81 -0.69,2.01 -1.22,3.48 -1.58,4.49 2.43,-0.74 4.28,-2.01 5.54,-3.8 0.58,-0.79 1.37,-2.22 2.43,-4.23 0.16,-0.37 0.32,-0.48 0.48,-0.42 0.16,0.05 0.21,0.16 0.21,0.32 0,0.1 -0.21,0.63 -0.63,1.48 -0.42,0.85 -0.84,1.64 -1.27,2.38 -0.42,0.74 -1,1.48 -1.69,2.27 -0.69,0.79 -1.48,1.37 -2.32,1.85 -0.85,0.48 -1.95,0.95 -3.38,1.42 -1.95,3.59 -3.96,6.23 -5.97,7.92 -1.85,1.53 -3.91,2.33 -6.07,2.33l0.01 -0.11zm-2.22 -3.8c-0.26,0.58 -0.42,1.11 -0.42,1.58 0,0.48 0.16,0.85 0.53,1.11 0.37,0.26 0.79,0.37 1.37,0.37 1.48,0 3.06,-0.74 4.75,-2.27 1.69,-1.53 3.17,-3.17 4.49,-4.91l0.85 -1.42c-4.23,1.11 -6.92,1.9 -8.03,2.38 -1.64,0.74 -2.8,1.8 -3.54,3.22l-0 -0.05zm34.69 -18.8c-0.48,0.48 -1.11,1.53 -1.95,3.12 -0.85,1.64 -1.37,2.85 -1.53,3.64 -0.16,0.79 -0.26,1.48 -0.26,1.95 0,0.48 0.21,0.74 0.58,0.74 0.48,0 1.11,-0.48 1.8,-1.37 1.06,-1.32 2.11,-3.01 3.12,-5.12 0.11,-0.21 0.21,-0.37 0.37,-0.37 0.21,-0.05 0.32,0 0.32,0.21 0,0.11 -0.05,0.26 -0.11,0.48 -2.38,4.75 -4.33,7.18 -5.97,7.18 -0.74,0 -1.37,-0.37 -1.8,-1.06 -0.21,-0.37 -0.37,-0.9 -0.37,-1.53 0,-0.63 0.11,-1.42 0.37,-2.38 -2.06,3.33 -3.8,4.96 -5.33,4.96 -0.42,0 -0.79,-0.1 -1.11,-0.37 -0.79,-0.53 -1.16,-1.48 -1.16,-2.8 0,-2.53 1.11,-5.07 3.27,-7.66 1.22,-1.42 2.75,-2.38 4.54,-2.8 0.48,-0.11 0.95,-0.21 1.37,-0.21 1.16,0 2.17,0.42 3.01,1.22 0.26,0.26 0.32,0.53 0.21,0.79 -0.1,0.26 -0.32,0.37 -0.63,0.32 -0.26,-0.95 -0.9,-1.37 -1.85,-1.37 -1.11,0 -2.48,0.9 -4.07,2.64 -0.95,1 -1.79,2.22 -2.59,3.64 -1,1.69 -1.48,3.01 -1.48,4.01 0,1 0.32,1.48 0.95,1.48 1.53,0 3.54,-2.38 6.07,-7.08 0.48,-0.95 0.9,-1.58 1.22,-1.95 0.32,-0.37 0.74,-0.53 1.27,-0.53 0.11,0 0.37,0.05 0.79,0.11 0.42,0.05 0.74,0.11 0.95,0.05l0 0.05zm46.68 -16.74c2.75,1.64 4.07,3.59 4.07,5.86 0,1.8 -1,3.75 -3.01,5.76 -1.16,1.22 -2.53,2.27 -4.12,3.12 -1.58,0.9 -3.12,1.48 -4.7,1.9 -2.69,0.63 -5.07,0.95 -7.23,0.95 -0.48,0 -0.9,0 -1.37,-0.05 -1.9,2.75 -3.8,5.07 -5.76,7.02 -2.9,2.75 -6.07,4.07 -9.61,4.07 -3.33,0 -5.39,-0.9 -6.18,-2.75 -0.16,-0.42 -0.26,-0.95 -0.26,-1.53 0,-0.58 0.32,-1.22 0.9,-1.85 0.9,-1.06 2.22,-1.58 3.91,-1.58 1.06,0 2.22,0.21 3.38,0.58 0.42,0.16 0.58,0.32 0.48,0.48 -0.1,0.11 -0.42,0.05 -1,-0.16 -0.58,-0.21 -1.27,-0.32 -2.11,-0.32 -0.85,0 -1.59,0.32 -2.22,0.95 -0.63,0.63 -0.95,1.32 -0.95,2.01 0,0.26 0.05,0.58 0.16,0.85 0.42,1.37 1.58,2.06 3.49,2.06 2.85,0 5.7,-1.32 8.45,-4.01 1.95,-1.9 4.23,-5.38 6.65,-10.4 0.95,-1.9 2.11,-3.96 3.54,-6.29 1.43,-2.32 2.85,-4.28 4.33,-5.91 0.16,-0.16 0.42,-0.42 0.69,-0.69 0.53,-0.63 1,-1.11 1.37,-1.48 -1.85,-0.26 -3.8,-0.37 -5.91,-0.37 -2.11,0 -4.12,0.16 -5.97,0.53 -1.9,0.37 -3.49,0.74 -4.91,1.22 -1.37,0.48 -2.8,1.11 -4.23,1.85 -1.42,0.74 -2.64,1.69 -3.59,2.85 -1.27,1.48 -1.9,3.01 -1.9,4.59 0,0.95 0.37,1.9 1.06,2.75 0.74,0.9 1.69,1.37 2.85,1.37 1.16,0 2.32,-0.42 3.38,-1.37 1.11,-0.9 1.85,-2.01 2.32,-3.33 0,-0.16 0.11,-0.32 0.16,-0.37 0.11,-0.05 0.16,-0.05 0.26,0 0.05,0.05 0.11,0.21 0.11,0.37 0,1.69 -0.69,3.01 -1.95,3.96 -1.27,0.95 -2.69,1.42 -4.23,1.42 -1.74,0 -3.17,-0.53 -4.28,-1.53 -1.11,-1 -1.64,-2.32 -1.64,-3.96 0,-1.48 0.42,-2.85 1.22,-4.01 0.79,-1.22 1.74,-2.16 2.85,-2.9 1.11,-0.74 2.38,-1.42 3.8,-2.01 2.43,-1 5.02,-1.64 7.71,-2.06 2.69,-0.42 5.18,-0.58 7.5,-0.58 2.32,0 4.49,0.21 6.44,0.63 0.95,-0.74 1.74,-1.22 2.43,-1.48 0.69,-0.26 1.11,-0.37 1.16,-0.37 0.11,0 0.16,0 0.16,0.05 0.16,0 0.21,0.11 0.11,0.26 -0.11,0.16 -0.37,0.42 -0.9,0.74 -0.48,0.32 -1,0.74 -1.43,1.22 1.64,0.42 3.12,1.06 4.49,1.85l0.05 0.11zm-15.26 16.74c1.85,0 3.91,-0.32 6.12,-1 2.22,-0.63 4.12,-1.64 5.81,-2.85 3.27,-2.48 4.91,-5.07 4.91,-7.71 0,-3.01 -2.27,-5.07 -6.81,-6.13 -1.42,2.01 -3.27,5.07 -5.6,9.13 -2.27,4.07 -3.96,6.92 -5.02,8.56 0.16,0 0.37,0 0.53,0l0.05 -0zm24.24 -0.05c-0.48,0.48 -1.11,1.53 -1.95,3.12 -0.84,1.64 -1.37,2.85 -1.53,3.64 -0.16,0.79 -0.26,1.48 -0.26,1.95 0,0.48 0.21,0.74 0.58,0.74 0.48,0 1.11,-0.48 1.8,-1.37 1.06,-1.32 2.11,-3.01 3.12,-5.12 0.1,-0.21 0.21,-0.37 0.37,-0.37 0.21,-0.05 0.32,0 0.32,0.21 0,0.1 -0.05,0.26 -0.1,0.48 -2.38,4.75 -4.33,7.18 -5.97,7.18 -0.74,0 -1.37,-0.37 -1.79,-1.06 -0.21,-0.37 -0.37,-0.9 -0.37,-1.53 0,-0.63 0.11,-1.43 0.37,-2.38 -2.06,3.33 -3.8,4.97 -5.34,4.97 -0.42,0 -0.79,-0.11 -1.11,-0.37 -0.79,-0.53 -1.16,-1.48 -1.16,-2.8 0,-2.54 1.11,-5.07 3.27,-7.66 1.22,-1.43 2.75,-2.38 4.54,-2.8 0.48,-0.1 0.95,-0.21 1.37,-0.21 1.16,0 2.16,0.42 3.01,1.22 0.26,0.26 0.32,0.53 0.21,0.79 -0.11,0.26 -0.32,0.37 -0.63,0.32 -0.26,-0.95 -0.9,-1.37 -1.85,-1.37 -1.11,0 -2.48,0.9 -4.07,2.64 -0.95,1 -1.8,2.22 -2.59,3.64 -1,1.69 -1.48,3.01 -1.48,4.01 0,1 0.32,1.48 0.95,1.48 1.53,0 3.54,-2.38 6.07,-7.08 0.48,-0.95 0.9,-1.58 1.21,-1.95 0.32,-0.37 0.74,-0.53 1.27,-0.53 0.1,0 0.37,0.05 0.79,0.1 0.42,0.05 0.74,0.11 0.95,0.05l0 0.05zm0.79 7.34c0,-2.11 1,-5.7 3.06,-10.72l-2.01 0c-0.1,0 -0.21,-0.05 -0.26,-0.21 -0.05,-0.16 0,-0.26 0.05,-0.42 0.05,-0.16 0.16,-0.21 0.26,-0.21l2.32 0c0.9,-2.01 1.8,-3.75 2.59,-5.07 0.79,-1.37 1.53,-2.27 2.22,-2.75 0.69,-0.48 1.16,-0.69 1.42,-0.69 0.32,0 0.53,0 0.63,0.05 0.58,0.26 0.9,0.84 0.9,1.74 0,0.9 -0.32,1.95 -0.9,3.22 -0.58,1.27 -1.16,2.43 -1.74,3.48l1.85 0c0.1,0 0.21,0.05 0.26,0.21 0.05,0.16 0,0.26 -0.05,0.42 -0.05,0.16 -0.16,0.21 -0.26,0.21l-2.22 0c-1.43,2.38 -3.12,4.49 -5.12,6.34l-0.9 3.91c-0.05,0.32 -0.1,0.69 -0.1,1 0,0.32 0.1,0.63 0.26,1 0.16,0.32 0.48,0.48 0.85,0.48 0.42,0 0.9,-0.16 1.48,-0.48 1.22,-0.9 2.59,-2.85 4.06,-5.81 0.11,-0.21 0.21,-0.37 0.37,-0.42 0.16,-0.05 0.21,0 0.26,0.1 0,0.11 0,0.32 -0.11,0.58 -0.85,1.8 -1.53,3.01 -2.01,3.75 -1.37,2.22 -2.85,3.33 -4.44,3.33 -0.79,0 -1.43,-0.32 -1.95,-0.9 -0.53,-0.58 -0.79,-1.32 -0.79,-2.22l0 0.05zm7.76 -11.57c1.69,-3.01 2.54,-5.12 2.54,-6.34 0,-0.53 -0.11,-0.79 -0.26,-0.79 -0.26,0 -0.74,0.42 -1.27,1.22 -0.58,0.84 -1.53,2.8 -2.9,5.86l1.9 0 0 0.05zm-0.47 0.85l-1.8 0c-0.32,0.74 -1,2.43 -2.06,5.12 1.37,-1.43 2.69,-3.17 3.91,-5.12l-0.05 0zm6.7 -1.22c-0.37,0.32 -0.74,0.48 -1.22,0.48 -0.42,0 -0.79,-0.16 -1.06,-0.48 -0.26,-0.32 -0.37,-0.69 -0.32,-1.11 0.05,-0.42 0.32,-0.79 0.63,-1.11 0.37,-0.32 0.74,-0.48 1.22,-0.48 0.42,0 0.79,0.16 1.05,0.48 0.26,0.32 0.37,0.69 0.26,1.11 -0.05,0.42 -0.32,0.79 -0.63,1.11l0.05 0zm-3.8 14.15c0.48,0 1,-0.26 1.53,-0.74 0.95,-0.95 2.17,-2.9 3.64,-5.81 0.16,-0.37 0.37,-0.48 0.53,-0.37 0.05,0.05 0.05,0.16 0.05,0.26 0,0.11 -0.11,0.42 -0.32,0.85 -0.21,0.48 -0.37,0.84 -0.58,1.22 -0.16,0.37 -0.48,0.95 -0.95,1.74 -0.48,0.79 -0.9,1.43 -1.27,1.85 -1.06,1.22 -2.06,1.8 -3.01,1.8 -0.95,0 -1.64,-0.26 -2.01,-0.84 -0.42,-0.58 -0.63,-1.22 -0.63,-1.9 0,-0.69 0.16,-1.42 0.48,-2.27l2.48 -6.28c0.05,-0.16 0.05,-0.37 0.05,-0.63 0,-0.26 -0.16,-0.58 -0.48,-1l2.11 -0.05c0.58,0 0.95,0.11 1.06,0.32 0.11,0.21 0,0.58 -0.21,1l-3.06 7.18c-0.42,0.95 -0.63,1.74 -0.63,2.43 0,0.74 0.42,1.11 1.22,1.11l-0 0.16zm7.34 -6.6c0,0.1 -0.16,0.48 -0.37,1.06 -0.21,0.58 -0.37,1.16 -0.53,1.74 -0.16,0.53 -0.21,1.11 -0.21,1.64 0,0.53 0.11,1.06 0.37,1.53 0.26,0.48 0.69,0.69 1.22,0.69 0.95,0 1.85,-0.63 2.69,-1.85 0.9,-1.27 1.8,-2.85 2.8,-4.75 0.21,-0.37 0.42,-0.48 0.58,-0.42 0.1,0.11 0.16,0.26 0.05,0.42 -0.05,0.16 -0.26,0.53 -0.48,1.06 -0.26,0.53 -0.42,0.95 -0.53,1.16 -0.1,0.21 -0.32,0.58 -0.63,1.16 -0.32,0.53 -0.53,0.95 -0.79,1.22 -0.21,0.26 -0.53,0.63 -0.9,1.06 -0.37,0.42 -0.74,0.74 -1.06,0.95 -0.9,0.58 -1.74,0.85 -2.53,0.85 -0.79,0 -1.43,-0.16 -1.85,-0.53 -0.42,-0.37 -0.69,-0.74 -0.79,-1.11 -0.1,-0.42 -0.16,-0.74 -0.16,-1.06 0,-0.32 0,-0.69 0.05,-1.22 0.05,-0.84 0.26,-1.64 0.48,-2.38 0.26,-0.79 0.37,-1.22 0.42,-1.32 0.58,-2.11 1.43,-4.44 2.54,-6.97 1.11,-2.53 2.01,-4.44 2.8,-5.7 0.74,-1.27 1.37,-2.11 1.8,-2.59 0.9,-0.95 1.74,-1.37 2.59,-1.37 0.58,0 1,0.42 1.22,1.27 0,0.16 0.05,0.37 0.05,0.58 0,0.9 -0.32,1.95 -0.95,3.33 -2.22,4.91 -4.86,8.76 -7.92,11.57l0.06 0zm0.32 -1.21c1.32,-1.32 2.59,-3.01 3.91,-5.07 1.27,-2.01 2.22,-3.75 2.85,-5.18 0.58,-1.42 0.9,-2.38 0.9,-2.9 0,-0.53 -0.11,-0.79 -0.26,-0.79 -0.26,0 -0.74,0.53 -1.48,1.53 -0.74,1 -1.69,2.85 -2.91,5.49 -1.22,2.64 -2.22,4.91 -3.01,6.92z"/>
   <path class="fil3" d="M166.9 68.54l1.43 -7.02 1.58 0 -2.16 9.29 -1.53 0 -1.8 -6.81 -1.8 6.81 -1.53 0 -2.16 -9.29 1.58 0 1.43 6.97 1.8 -6.97 1.37 0 1.74 7.02 0.05 0zm9.98 2.43c-1,0 -1.8,-0.32 -2.38,-0.95 -0.63,-0.63 -0.9,-1.43 -0.9,-2.48l0 -0.21c0,-0.69 0.16,-1.32 0.42,-1.85 0.26,-0.53 0.63,-0.95 1.11,-1.27 0.48,-0.32 1,-0.48 1.58,-0.48 0.95,0 1.69,0.32 2.16,0.9 0.53,0.58 0.79,1.43 0.79,2.54l0 0.63 -4.54 0c0.05,0.58 0.26,1 0.58,1.37 0.32,0.32 0.74,0.48 1.27,0.48 0.69,0 1.27,-0.26 1.74,-0.84l0.85 0.79c-0.26,0.42 -0.63,0.74 -1.11,0.95 -0.48,0.21 -1,0.32 -1.53,0.32l-0.05 0.11zm-0.16 -5.91c-0.42,0 -0.79,0.16 -1.06,0.42 -0.26,0.32 -0.42,0.74 -0.48,1.27l2.96 0 0 -0.11c-0.05,-0.53 -0.16,-0.9 -0.42,-1.16 -0.26,-0.26 -0.58,-0.42 -1,-0.42zm13.25 2.43c0,1.06 -0.26,1.95 -0.74,2.59 -0.48,0.63 -1.16,0.95 -1.95,0.95 -0.79,0 -1.42,-0.32 -1.9,-0.9l-0.05 0.74 -1.42 0 0 -9.82 1.53 0 0 3.54c0.42,-0.53 1.06,-0.79 1.8,-0.79 0.85,0 1.53,0.32 2.01,0.95 0.48,0.63 0.74,1.48 0.74,2.64l0 0.11 0 0zm-1.53 -0.16c0,-0.74 -0.16,-1.32 -0.42,-1.69 -0.26,-0.37 -0.63,-0.58 -1.16,-0.58 -0.69,0 -1.16,0.32 -1.43,0.9l0 2.85c0.26,0.58 0.74,0.9 1.43,0.9 0.48,0 0.84,-0.16 1.11,-0.53 0.26,-0.37 0.42,-0.9 0.42,-1.64l0 -0.21 0.05 -0zm9.29 3.54l0 -9.29 2.75 0c0.85,0 1.53,0.16 2.16,0.53 0.63,0.37 1.11,0.9 1.48,1.59 0.37,0.69 0.53,1.42 0.53,2.32l0 0.48c0,0.9 -0.16,1.64 -0.53,2.33 -0.37,0.69 -0.85,1.16 -1.48,1.53 -0.63,0.37 -1.37,0.53 -2.22,0.53l-2.69 0 0 -0zm1.64 -7.97l0 6.71 1.06 0c0.84,0 1.48,-0.26 1.95,-0.79 0.48,-0.53 0.69,-1.27 0.69,-2.27l0 -0.53c0,-1 -0.21,-1.8 -0.63,-2.32 -0.42,-0.53 -1.06,-0.79 -1.9,-0.79l-1.11 0 -0.05 0zm12.88 8.13c-1,0 -1.79,-0.32 -2.38,-0.95 -0.63,-0.63 -0.9,-1.42 -0.9,-2.48l0 -0.21c0,-0.69 0.16,-1.32 0.42,-1.85 0.26,-0.53 0.63,-0.95 1.11,-1.27 0.48,-0.32 1,-0.48 1.58,-0.48 0.95,0 1.69,0.32 2.17,0.9 0.53,0.58 0.79,1.43 0.79,2.54l0 0.63 -4.54 0c0.05,0.58 0.21,1 0.58,1.37 0.32,0.32 0.74,0.48 1.27,0.48 0.69,0 1.27,-0.26 1.74,-0.84l0.84 0.79c-0.26,0.42 -0.63,0.74 -1.11,0.95 -0.48,0.21 -1,0.32 -1.53,0.32l-0.05 0.11zm-0.16 -5.91c-0.42,0 -0.79,0.16 -1.06,0.42 -0.26,0.32 -0.42,0.74 -0.48,1.27l2.96 0 0 -0.1c-0.05,-0.53 -0.16,-0.9 -0.42,-1.16 -0.26,-0.26 -0.58,-0.42 -1,-0.42zm9.56 3.8l1.48 -4.96 1.58 0 -2.38 6.92 -1.37 0 -2.43 -6.92 1.58 0 1.48 4.96 0.05 0zm10.03 2.11c-1,0 -1.8,-0.32 -2.38,-0.95 -0.63,-0.63 -0.9,-1.42 -0.9,-2.48l0 -0.21c0,-0.69 0.16,-1.32 0.42,-1.85 0.26,-0.53 0.63,-0.95 1.11,-1.27 0.48,-0.32 1,-0.48 1.58,-0.48 0.95,0 1.69,0.32 2.16,0.9 0.53,0.58 0.79,1.43 0.79,2.54l0 0.63 -4.54 0c0.05,0.58 0.26,1 0.58,1.37 0.32,0.32 0.74,0.48 1.27,0.48 0.69,0 1.27,-0.26 1.74,-0.84l0.85 0.79c-0.26,0.42 -0.63,0.74 -1.11,0.95 -0.48,0.21 -1,0.32 -1.53,0.32l-0.05 0.11zm-0.16 -5.91c-0.42,0 -0.79,0.16 -1.06,0.42 -0.26,0.32 -0.42,0.74 -0.48,1.27l2.96 0 0 -0.1c-0.05,-0.53 -0.16,-0.9 -0.42,-1.16 -0.26,-0.26 -0.58,-0.42 -1,-0.42zm8.87 5.81l-1.53 0 0 -9.82 1.53 0 0 9.82zm4.44 -3.54c0,-0.69 0.16,-1.27 0.42,-1.85 0.26,-0.53 0.63,-0.95 1.11,-1.27 0.48,-0.32 1.06,-0.42 1.69,-0.42 0.95,0 1.69,0.32 2.27,0.9 0.58,0.58 0.9,1.37 0.95,2.38l0 0.37c0,0.69 -0.11,1.27 -0.37,1.85 -0.26,0.53 -0.63,0.95 -1.11,1.27 -0.48,0.32 -1.06,0.42 -1.69,0.42 -0.95,0 -1.74,-0.32 -2.32,-0.95 -0.58,-0.63 -0.9,-1.53 -0.9,-2.59l0 -0.05 -0.05 -0.06zm1.53 0.11c0,0.69 0.16,1.27 0.42,1.69 0.32,0.42 0.69,0.58 1.22,0.58 0.53,0 0.95,-0.21 1.22,-0.63 0.32,-0.42 0.42,-1 0.42,-1.8 0,-0.69 -0.16,-1.27 -0.48,-1.64 -0.32,-0.42 -0.69,-0.63 -1.22,-0.63 -0.53,0 -0.9,0.21 -1.22,0.58 -0.32,0.42 -0.42,1 -0.42,1.8l0.05 0.05zm15.26 0c0,1.06 -0.26,1.9 -0.74,2.59 -0.48,0.63 -1.16,0.95 -1.95,0.95 -0.74,0 -1.37,-0.26 -1.8,-0.74l0 3.27 -1.53 0 0 -9.56 1.43 0 0.05 0.69c0.48,-0.53 1.06,-0.85 1.85,-0.85 0.85,0 1.48,0.32 2.01,0.95 0.48,0.63 0.74,1.48 0.74,2.64l0 0.1 -0.05 -0.05zm-1.53 -0.16c0,-0.69 -0.16,-1.22 -0.42,-1.64 -0.26,-0.42 -0.69,-0.58 -1.16,-0.58 -0.63,0 -1.11,0.26 -1.37,0.79l0 3.06c0.26,0.53 0.74,0.79 1.37,0.79 0.48,0 0.9,-0.21 1.16,-0.58 0.26,-0.42 0.42,-1 0.42,-1.8l0 -0.05zm8.92 3.64c-1,0 -1.79,-0.32 -2.38,-0.95 -0.63,-0.63 -0.9,-1.43 -0.9,-2.48l0 -0.21c0,-0.69 0.16,-1.32 0.42,-1.85 0.26,-0.53 0.63,-0.95 1.11,-1.27 0.48,-0.32 1,-0.48 1.58,-0.48 0.95,0 1.69,0.32 2.17,0.9 0.53,0.58 0.79,1.43 0.79,2.54l0 0.63 -4.54 0c0.05,0.58 0.26,1 0.58,1.37 0.32,0.32 0.74,0.48 1.27,0.48 0.69,0 1.27,-0.26 1.74,-0.84l0.85 0.79c-0.26,0.42 -0.63,0.74 -1.11,0.95 -0.48,0.21 -1,0.32 -1.53,0.32l-0.05 0.11zm-0.16 -5.91c-0.42,0 -0.79,0.16 -1.06,0.42 -0.26,0.32 -0.42,0.74 -0.48,1.27l2.96 0 0 -0.11c-0.05,-0.53 -0.16,-0.9 -0.42,-1.16 -0.26,-0.26 -0.58,-0.42 -1,-0.42zm10.83 0.32c-0.21,-0.05 -0.42,-0.05 -0.63,-0.05 -0.69,0 -1.22,0.26 -1.42,0.79l0 4.75 -1.53 0 0 -6.92 1.48 0 0.05 0.79c0.37,-0.58 0.9,-0.9 1.58,-0.9 0.21,0 0.42,0.05 0.53,0.11l0 1.48 -0.06 -0.05z"/>
  </g>
 </g>
</svg>
